<?xml version="1.0" encoding="utf-8"?>
<!-- Generator: Adobe Illustrator 24.1.1, SVG Export Plug-In . SVG Version: 6.00 Build 0)  -->
<svg version="1.1" id="Capa_1" xmlns="http://www.w3.org/2000/svg" xmlns:xlink="http://www.w3.org/1999/xlink" x="0px" y="0px"
	 viewBox="0 0 1000 1000" style="enable-background:new 0 0 1000 1000;" xml:space="preserve">
<style type="text/css">
	.st0{fill:#D5D4D4;}
	.st1{fill:#C54A2B;}
	.st2{fill:#030104;}
	.st3{fill:#BBB9BD;}
	.st4{fill:#010002;}
</style>
<g>
	<path class="st0" d="M380.98,259.25c0,0,96.5,0,93.47-85.92l23.75-15.09l21.51,13.56c0,0,29.76,111-132.48,130.78l-16.4-18.64
		L380.98,259.25z"/>
	<path class="st0" d="M558.69,383.24c0,0-68.22-68.22-126.85-5.34l-27.45-6.13l-5.57-24.76c0,0,57.39-99.55,186.09,1.19l-1.57,24.77
		L558.69,383.24z"/>
	<path class="st1" d="M437.82,172.08c0,24.56-19.89,44.48-44.44,44.48c-24.59,0-44.48-19.93-44.48-44.48
		c0-24.54,19.89-44.46,44.48-44.46C417.93,127.62,437.82,147.54,437.82,172.08z"/>
	<path class="st2" d="M437.82,387.66c0,24.57-19.89,44.48-44.44,44.48c-24.59,0-44.48-19.91-44.48-44.48
		c0-24.56,19.89-44.47,44.48-44.47C417.93,343.19,437.82,363.1,437.82,387.66z"/>
	<path class="st2" d="M393.37,285.15c0,24.57-19.94,44.46-44.48,44.46c-24.58,0-44.46-19.89-44.46-44.46
		c0-24.57,19.89-44.47,44.46-44.47C373.43,240.68,393.37,260.57,393.37,285.15z"/>
	<path class="st3" d="M475.19,400.16c0,0,0-96.48-85.96-93.44l-15.06-23.77l13.56-21.46c0,0,111-29.78,130.75,132.45l-18.63,16.4
		L475.19,400.16z"/>
	<path class="st3" d="M518.44,165.08c0,0,0,96.5,85.92,93.47l15.08,23.75l-13.53,21.48c0,0-110.99,29.77-130.81-132.47l18.67-16.38
		L518.44,165.08z"/>
	<path class="st2" d="M685.82,285.15c0,24.57-19.93,44.46-44.49,44.46c-24.6,0-44.46-19.89-44.46-44.46
		c0-24.57,19.86-44.47,44.46-44.47C665.89,240.68,685.82,260.57,685.82,285.15z"/>
	<path class="st2" d="M541.84,134.39c0,24.57-19.91,44.47-44.48,44.47c-24.56,0-44.45-19.9-44.45-44.47
		c0-24.54,19.9-44.47,44.45-44.47C521.93,89.92,541.84,109.85,541.84,134.39z"/>
	<path class="st0" d="M587.37,218.32c0,0-68.26,68.22-5.37,126.87l-6.15,27.42l-24.74,5.62c0,0-99.55-57.45,1.18-186.16l24.81,1.6
		L587.37,218.32z"/>
	<path class="st2" d="M641.33,182.63c0,24.58-19.91,44.48-44.46,44.48c-24.56,0-44.46-19.9-44.46-44.48
		c0-24.55,19.91-44.46,44.46-44.46C621.42,138.17,641.33,158.08,641.33,182.63z"/>
	<path class="st2" d="M641.33,387.66c0,24.57-19.91,44.48-44.46,44.48c-24.56,0-44.46-19.91-44.46-44.48
		c0-24.56,19.91-44.47,44.46-44.47C621.42,343.19,641.33,363.1,641.33,387.66z"/>
	<path class="st2" d="M541.84,432.13c0,24.55-19.91,44.47-44.48,44.47c-24.56,0-44.45-19.93-44.45-44.47
		c0-24.57,19.9-44.47,44.45-44.47C521.93,387.66,541.84,407.56,541.84,432.13z"/>
	<path class="st2" d="M393.37,285.15c0,24.57-19.94,44.46-44.48,44.46c-24.58,0-44.46-19.89-44.46-44.46
		c0-24.57,19.89-44.47,44.46-44.47C373.43,240.68,393.37,260.57,393.37,285.15z"/>
</g>
<g>
	<g>
		<path class="st4" d="M16.63,509.66h66.38v211.07H16.63V509.66z"/>
		<path class="st4" d="M115.49,509.66h201.33v52.11h-67.54v158.96h-66.25V561.78h-67.54V509.66z"/>
		<path class="st4" d="M335.23,650.91l63.03-3.89c1.36,10.08,4.15,17.76,8.34,23.03c6.81,8.58,16.54,12.86,29.25,12.86
			c9.45,0,16.73-2.21,21.86-6.58c5.11-4.36,7.65-9.42,7.65-15.18c0-5.46-2.44-10.36-7.31-14.71c-4.87-4.31-16.15-8.37-33.92-12.22
			c-29.04-6.43-49.75-14.97-62.14-25.63c-12.45-10.65-18.72-24.23-18.72-40.76c0-10.83,3.19-21.08,9.6-30.73
			c6.38-9.64,15.98-17.23,28.76-22.76c12.83-5.5,30.43-8.27,52.74-8.27c27.4,0,48.28,5.02,62.66,15.04
			c14.38,10.03,22.92,26,25.67,47.88l-62.44,3.61c-1.64-9.49-5.16-16.42-10.45-20.74c-5.35-4.35-12.65-6.49-22.04-6.49
			c-7.7,0-13.49,1.6-17.39,4.82c-3.9,3.23-5.84,7.14-5.84,11.75c0,3.37,1.62,6.37,4.82,9.06c3.1,2.79,10.51,5.39,22.24,7.79
			c28.9,6.14,49.67,12.36,62.19,18.64c12.54,6.31,21.63,14.09,27.35,23.41c5.71,9.31,8.53,19.73,8.53,31.25
			c0,13.53-3.75,26.02-11.38,37.42c-7.6,11.43-18.23,20.09-31.89,26c-13.63,5.88-30.85,8.86-51.6,8.86
			c-36.46,0-61.68-6.94-75.76-20.72C345.05,689.78,337.08,672.22,335.23,650.91z"/>
		<path class="st4" d="M702.56,509.66h66.08v125.76c0,12.46-1.94,24.25-5.92,35.33c-3.95,11.08-10.15,20.75-18.54,29.05
			c-8.49,8.31-17.3,14.12-26.54,17.49c-12.88,4.68-28.33,7.06-46.34,7.06c-10.5,0-21.83-0.73-34.17-2.17
			c-12.32-1.45-22.64-4.28-30.91-8.56c-8.3-4.26-15.89-10.33-22.75-18.2c-6.84-7.88-11.58-15.97-14.1-24.32
			c-4.07-13.42-6.13-25.31-6.13-35.68V509.66h66.08v128.75c0,11.49,3.24,20.51,9.73,26.98c6.45,6.47,15.47,9.71,26.98,9.71
			c11.4,0,20.35-3.2,26.82-9.58c6.45-6.38,9.71-15.41,9.71-27.11V509.66z"/>
		<path class="st4" d="M812.23,509.66h110.13c23.93,0,41.94,5.62,53.85,16.83c11.95,11.24,17.92,27.23,17.92,47.94
			c0,21.33-6.5,37.96-19.51,49.99c-13,11.98-32.88,17.98-59.56,17.98h-36.28v78.33h-66.55V509.66z M878.78,599.65h16.23
			c12.76,0,21.73-2.18,26.87-6.55c5.23-4.37,7.75-9.95,7.75-16.78c0-6.6-2.22-12.22-6.73-16.84c-4.46-4.58-12.93-6.9-25.27-6.9
			h-18.84V599.65z"/>
	</g>
	<rect x="16.68" y="737.51" class="st4" width="956.83" height="9.53"/>
	<path class="st4" d="M16.63,804.7v-38.62h7.6v38.62H16.63z"/>
	<path class="st4" d="M31.57,803.51v-36.79h7.42l15.43,24.57v-24.57h7.04v36.79h-7.62l-15.21-24.02v24.02H31.57z"/>
	<path class="st4" d="M67.62,791.55l7.41-0.73c0.42,2.44,1.35,4.23,2.69,5.36c1.35,1.15,3.21,1.7,5.52,1.7
		c2.43,0,4.29-0.5,5.57-1.49c1.19-1.03,1.84-2.23,1.84-3.57c0-0.87-0.24-1.61-0.77-2.21c-0.53-0.62-1.45-1.16-2.74-1.6
		c-0.89-0.31-2.93-0.83-6.12-1.61c-4.07-0.98-6.95-2.21-8.58-3.64c-2.3-2.03-3.46-4.52-3.46-7.41c0-1.89,0.53-3.64,1.59-5.27
		c1.11-1.63,2.68-2.86,4.74-3.72c2.04-0.88,4.53-1.28,7.39-1.28c4.75,0,8.31,1.01,10.71,3.06c2.39,2.02,3.65,4.7,3.78,8.06
		l-7.61,0.36c-0.34-1.92-1.04-3.28-2.1-4.1c-1.06-0.83-2.69-1.23-4.82-1.23c-2.21,0-3.96,0.45-5.2,1.32
		c-0.82,0.58-1.21,1.33-1.21,2.29c0,0.87,0.36,1.62,1.16,2.23c0.97,0.8,3.27,1.62,6.98,2.47c3.7,0.85,6.42,1.73,8.23,2.65
		c1.77,0.91,3.14,2.16,4.16,3.73c1.02,1.59,1.5,3.54,1.5,5.87c0,2.09-0.63,4.07-1.84,5.92c-1.17,1.84-2.9,3.2-5.06,4.1
		c-2.19,0.88-4.96,1.33-8.19,1.33c-4.78,0-8.45-1.06-11.02-3.19C69.63,798.8,68.1,795.65,67.62,791.55z"/>
	<path class="st4" d="M113.14,803.51v-30.58h-11.17v-6.21h29.93v6.21h-11.16v30.58H113.14z"/>
	<path class="st4" d="M136.59,803.51v-36.79h7.64v36.79H136.59z"/>
	<path class="st4" d="M159.95,803.51v-30.58h-11.19v-6.21h30v6.21h-11.19v30.58H159.95z"/>
	<path class="st4" d="M183.59,766.71h7.62v19.93c0,3.15,0.1,5.21,0.3,6.15c0.31,1.49,1.06,2.72,2.3,3.64
		c1.21,0.92,2.9,1.36,5.05,1.36c2.14,0,3.76-0.42,4.85-1.31c1.11-0.85,1.78-1.9,1.98-3.17c0.24-1.26,0.36-3.33,0.36-6.25v-20.35
		h7.61v19.34c0,4.4-0.2,7.53-0.6,9.35c-0.44,1.83-1.19,3.39-2.3,4.62c-1.1,1.25-2.57,2.25-4.43,3.01c-1.85,0.74-4.27,1.11-7.25,1.11
		c-3.61,0-6.32-0.4-8.19-1.23c-1.86-0.79-3.34-1.84-4.43-3.14c-1.06-1.32-1.77-2.67-2.13-4.09c-0.51-2.09-0.75-5.23-0.75-9.34
		V766.71z"/>
	<path class="st4" d="M230.18,803.51v-30.58h-11.19v-6.21h29.95v6.21H237.8v30.58H230.18z"/>
	<path class="st4" d="M251.36,785.32c0-3.72,0.59-6.89,1.72-9.42c0.87-1.88,2.01-3.54,3.51-5.06c1.46-1.46,3.1-2.58,4.87-3.27
		c2.35-1.01,5.05-1.48,8.15-1.48c5.53,0,9.97,1.68,13.32,5.03c3.33,3.35,4.99,8.05,4.99,14.06c0,5.93-1.64,10.58-4.97,13.94
		c-3.31,3.35-7.7,5.02-13.26,5.02c-5.62,0-10.07-1.67-13.36-4.99C253.01,795.8,251.36,791.21,251.36,785.32z M259.21,785.07
		c0,4.17,1.02,7.35,2.95,9.5c1.97,2.14,4.49,3.22,7.49,3.22c3.06,0,5.56-1.08,7.48-3.21c1.94-2.13,2.93-5.34,2.93-9.61
		c0-4.2-0.94-7.35-2.83-9.41c-1.91-2.09-4.41-3.12-7.57-3.12c-3.11,0-5.62,1.03-7.56,3.15
		C260.13,777.66,259.21,780.84,259.21,785.07z"/>
	<g>
		<path class="st4" d="M607.85,803.51v-30.58h-11.19v-6.21h29.94v6.21h-11.14v30.58H607.85z"/>
		<path class="st4" d="M631.53,803.51v-36.79h27.96v6.21h-20.32v8.16h18.91v6.18h-18.91v10.02h21.06v6.21H631.53z"/>
		<path class="st4" d="M690.79,789.99l7.38,2.28c-1.11,4.02-3.01,7.01-5.66,8.95c-2.61,1.95-5.94,2.93-10.01,2.93
			c-4.99,0-9.11-1.67-12.35-4.99c-3.19-3.35-4.81-7.91-4.81-13.7c0-6.14,1.62-10.9,4.86-14.28c3.26-3.4,7.49-5.09,12.76-5.09
			c4.62,0,8.39,1.34,11.24,3.98c1.73,1.57,3.01,3.83,3.86,6.79l-7.52,1.76c-0.49-1.91-1.36-3.4-2.77-4.51
			c-1.41-1.09-3.17-1.65-5.18-1.65c-2.8,0-5.04,0.95-6.82,2.92c-1.71,1.97-2.61,5.13-2.61,9.51c0,4.64,0.9,7.98,2.61,9.95
			c1.69,1.99,3.95,2.97,6.66,2.97c2.01,0,3.79-0.64,5.25-1.89C689.08,794.66,690.14,792.68,690.79,789.99z"/>
		<path class="st4" d="M704.8,803.51v-36.79h7.38l15.45,24.57v-24.57h7.08v36.79h-7.65l-15.21-24.02v24.02H704.8z"/>
		<path class="st4" d="M741.22,785.32c0-3.72,0.53-6.89,1.66-9.42c0.9-1.88,2.04-3.54,3.54-5.06c1.48-1.46,3.1-2.58,4.88-3.27
			c2.38-1.01,5.04-1.48,8.19-1.48c5.48,0,9.94,1.68,13.27,5.03c3.33,3.35,5.04,8.05,5.04,14.06c0,5.93-1.64,10.58-4.99,13.94
			c-3.33,3.35-7.7,5.02-13.27,5.02c-5.62,0-10.06-1.67-13.36-4.99C742.86,795.8,741.22,791.21,741.22,785.32z M749.04,785.07
			c0,4.17,0.97,7.35,2.96,9.5c1.97,2.14,4.49,3.22,7.49,3.22c3.05,0,5.53-1.08,7.52-3.21c1.94-2.13,2.94-5.34,2.94-9.61
			c0-4.2-0.99-7.35-2.89-9.41c-1.85-2.09-4.42-3.12-7.56-3.12s-5.62,1.03-7.56,3.15C749.96,777.66,749.04,780.84,749.04,785.07z"/>
		<path class="st4" d="M783.9,803.51v-36.5h7.61v30.29h18.94v6.21H783.9z"/>
		<path class="st4" d="M814.31,785.32c0-3.72,0.62-6.89,1.76-9.42c0.86-1.88,2.01-3.54,3.51-5.06c1.46-1.46,3.1-2.58,4.86-3.27
			c2.31-1.01,4.99-1.48,8.14-1.48c5.53,0,10.01,1.68,13.36,5.03c3.24,3.35,4.99,8.05,4.99,14.06c0,5.93-1.71,10.58-4.99,13.94
			c-3.31,3.35-7.7,5.02-13.27,5.02c-5.62,0-10.04-1.67-13.41-4.99C816,795.8,814.31,791.21,814.31,785.32z M822.2,785.07
			c0,4.17,1.02,7.35,2.91,9.5c1.99,2.14,4.56,3.22,7.52,3.22c3.05,0,5.53-1.08,7.49-3.21c1.99-2.13,2.96-5.34,2.96-9.61
			c0-4.2-0.97-7.35-2.84-9.41c-1.94-2.09-4.46-3.12-7.61-3.12c-3.15,0-5.62,1.03-7.56,3.15C823.17,777.66,822.2,780.84,822.2,785.07
			z M827.98,764.59l3.49-7.51h8.12l-7.05,7.51H827.98z"/>
		<path class="st4" d="M874.36,789.99v-6.22h16.42v14.67c-1.6,1.49-3.91,2.83-6.91,3.99c-3.01,1.13-6.06,1.71-9.2,1.71
			c-3.88,0-7.38-0.8-10.31-2.43c-2.96-1.62-5.13-3.91-6.64-6.91c-1.41-2.99-2.17-6.28-2.17-9.82c0-3.82,0.86-7.23,2.5-10.22
			c1.6-2.97,4.02-5.23,7.12-6.84c2.47-1.23,5.53-1.83,9.11-1.83c4.69,0,8.37,0.95,10.98,2.87c2.64,1.94,4.32,4.57,5.04,7.94
			l-7.54,1.37c-0.53-1.8-1.59-3.21-2.96-4.27c-1.5-1.05-3.35-1.56-5.53-1.56c-3.33,0-5.97,1.02-7.95,3.09
			c-1.97,2.07-2.94,5.12-2.94,9.14c0,4.36,0.97,7.65,2.94,9.87c2.03,2.16,4.62,3.25,7.86,3.25c1.6,0,3.24-0.31,4.83-0.93
			c1.6-0.61,2.96-1.35,4.12-2.21v-4.67H874.36z"/>
		<path class="st4" d="M897.57,803.51v-36.79h7.58v36.79H897.57z"/>
		<path class="st4" d="M936.56,789.99l7.4,2.28c-1.16,4.02-3.05,7.01-5.67,8.95c-2.61,1.95-5.92,2.93-10.03,2.93
			c-4.97,0-9.13-1.67-12.3-4.99c-3.24-3.35-4.83-7.91-4.83-13.7c0-6.14,1.6-10.9,4.83-14.28c3.21-3.4,7.52-5.09,12.79-5.09
			c4.65,0,8.39,1.34,11.24,3.98c1.76,1.57,3.05,3.83,3.88,6.79l-7.56,1.76c-0.39-1.91-1.32-3.4-2.8-4.51
			c-1.36-1.09-3.12-1.65-5.13-1.65c-2.82,0-5.09,0.95-6.8,2.92c-1.73,1.97-2.61,5.13-2.61,9.51c0,4.64,0.88,7.98,2.61,9.95
			c1.67,1.99,3.89,2.97,6.64,2.97c2.04,0,3.75-0.64,5.23-1.89C934.89,794.66,935.96,792.68,936.56,789.99z"/>
		<path class="st4" d="M948.91,785.32c0-3.72,0.63-6.89,1.73-9.42c0.88-1.88,2.08-3.54,3.58-5.06c1.46-1.46,3.1-2.58,4.86-3.27
			c2.31-1.01,5.06-1.48,8.12-1.48c5.57,0,9.99,1.68,13.32,5.03c3.31,3.35,5.04,8.05,5.04,14.06c0,5.93-1.73,10.58-4.99,13.94
			c-3.33,3.35-7.75,5.02-13.27,5.02c-5.64,0-10.06-1.67-13.36-4.99C950.59,795.8,948.91,791.21,948.91,785.32z M956.79,785.07
			c0,4.17,1.02,7.35,2.91,9.5c2.03,2.14,4.56,3.22,7.58,3.22c3.05,0,5.53-1.08,7.42-3.21c1.94-2.13,2.91-5.34,2.91-9.61
			c0-4.2-0.92-7.35-2.78-9.41c-1.94-2.09-4.44-3.12-7.56-3.12c-3.15,0-5.67,1.03-7.63,3.15
			C957.76,777.66,956.79,780.84,956.79,785.07z"/>
	</g>
	<g>
		<path class="st4" d="M305.98,791.55l7.41-0.73c0.46,2.44,1.35,4.23,2.72,5.36c1.38,1.15,3.19,1.7,5.53,1.7
			c2.46,0,4.3-0.5,5.54-1.49c1.24-1.03,1.86-2.23,1.86-3.57c0-0.87-0.27-1.61-0.78-2.21c-0.51-0.62-1.44-1.16-2.74-1.6
			c-0.91-0.31-2.93-0.83-6.12-1.61c-4.05-0.98-6.93-2.21-8.58-3.64c-2.32-2.03-3.46-4.52-3.46-7.41c0-1.89,0.53-3.64,1.62-5.27
			c1.11-1.63,2.66-2.86,4.72-3.72c2.06-0.88,4.51-1.28,7.4-1.28c4.74,0,8.32,1.01,10.72,3.06c2.37,2.02,3.63,4.7,3.76,8.06
			l-7.63,0.36c-0.34-1.92-1.02-3.28-2.1-4.1c-1.06-0.83-2.66-1.23-4.8-1.23c-2.23,0-3.92,0.45-5.2,1.32
			c-0.8,0.58-1.24,1.33-1.24,2.29c0,0.87,0.39,1.62,1.16,2.23c0.97,0.8,3.31,1.62,6.98,2.47c3.72,0.85,6.46,1.73,8.23,2.65
			c1.77,0.91,3.19,2.16,4.16,3.73c1.02,1.59,1.5,3.54,1.5,5.87c0,2.09-0.58,4.07-1.79,5.92c-1.17,1.84-2.9,3.2-5.06,4.1
			c-2.22,0.88-4.96,1.33-8.23,1.33c-4.77,0-8.45-1.06-10.97-3.19C308.02,798.8,306.49,795.65,305.98,791.55z"/>
		<path class="st4" d="M343.01,766.71h7.62v19.93c0,3.15,0.08,5.21,0.28,6.15c0.31,1.49,1.09,2.72,2.3,3.64
			c1.24,0.92,2.9,1.36,5.03,1.36c2.16,0,3.8-0.42,4.9-1.31c1.11-0.85,1.73-1.9,2-3.17c0.22-1.26,0.31-3.33,0.31-6.25v-20.35h7.61
			v19.34c0,4.4-0.22,7.53-0.62,9.35c-0.39,1.83-1.14,3.39-2.26,4.62c-1.1,1.25-2.59,2.25-4.43,3.01c-1.85,0.74-4.29,1.11-7.25,1.11
			c-3.58,0-6.35-0.4-8.19-1.23c-1.91-0.79-3.36-1.84-4.38-3.14c-1.13-1.32-1.84-2.67-2.22-4.09c-0.46-2.09-0.71-5.23-0.71-9.34
			V766.71z"/>
		<path class="st4" d="M381.08,803.51v-36.79h12.24c4.6,0,7.65,0.17,9.08,0.54c2.12,0.54,3.93,1.77,5.39,3.63
			c1.47,1.84,2.22,4.2,2.22,7.14c0,2.27-0.46,4.17-1.28,5.72c-0.84,1.51-1.93,2.72-3.24,3.61c-1.28,0.88-2.57,1.48-3.93,1.76
			c-1.81,0.33-4.45,0.52-7.87,0.52h-4.96v13.87H381.08z M388.73,772.93v10.46h4.15c3,0,5.01-0.19,6-0.58
			c1.04-0.39,1.81-0.99,2.39-1.83c0.6-0.81,0.86-1.76,0.86-2.85c0-1.34-0.39-2.46-1.19-3.31c-0.82-0.86-1.84-1.43-3.08-1.64
			c-0.9-0.16-2.72-0.25-5.47-0.25H388.73z"/>
		<path class="st4" d="M416.21,803.51v-36.79h27.96v6.21h-20.32v8.16h18.91v6.18h-18.91v10.02h21.09v6.21H416.21z"/>
		<path class="st4" d="M451.38,803.51v-36.79h16.02c4.02,0,6.98,0.32,8.79,1.01c1.83,0.63,3.3,1.83,4.39,3.5
			c1.11,1.7,1.64,3.62,1.64,5.81c0,2.76-0.84,5.02-2.47,6.84c-1.69,1.78-4.16,2.94-7.48,3.38c1.68,0.96,3.01,1.99,4.12,3.1
			c1.04,1.12,2.47,3.12,4.29,6l4.62,7.16h-9.13l-5.49-8c-1.95-2.87-3.29-4.69-3.99-5.42c-0.74-0.72-1.5-1.25-2.31-1.52
			c-0.8-0.29-2.08-0.41-3.84-0.41h-1.55v15.35H451.38z M458.98,782.26h5.66c3.63,0,5.92-0.13,6.82-0.45
			c0.9-0.28,1.64-0.81,2.13-1.56c0.53-0.72,0.79-1.65,0.79-2.76c0-1.25-0.35-2.23-1.02-2.97c-0.68-0.77-1.63-1.27-2.87-1.46
			c-0.63-0.1-2.47-0.13-5.55-0.13h-5.97V782.26z"/>
		<path class="st4" d="M489.17,803.51v-36.79h7.61v36.79H489.17z"/>
		<path class="st4" d="M502.49,785.32c0-3.72,0.58-6.89,1.7-9.42c0.91-1.88,2.03-3.54,3.54-5.06c1.49-1.46,3.1-2.58,4.88-3.27
			c2.36-1.01,5.07-1.48,8.12-1.48c5.57,0,10.01,1.68,13.34,5.03c3.33,3.35,4.97,8.05,4.97,14.06c0,5.93-1.64,10.58-4.95,13.94
			c-3.28,3.35-7.72,5.02-13.27,5.02c-5.59,0-10.06-1.67-13.37-4.99C504.14,795.8,502.49,791.21,502.49,785.32z M510.32,785.07
			c0,4.17,1.02,7.35,2.97,9.5c1.97,2.14,4.48,3.22,7.53,3.22c3.01,0,5.53-1.08,7.47-3.21c1.92-2.13,2.91-5.34,2.91-9.61
			c0-4.2-0.97-7.35-2.82-9.41c-1.92-2.09-4.46-3.12-7.56-3.12c-3.15,0-5.67,1.03-7.6,3.15
			C511.29,777.66,510.32,780.84,510.32,785.07z"/>
		<path class="st4" d="M545.05,803.51v-36.79h16c4.02,0,6.96,0.32,8.79,1.01c1.83,0.63,3.26,1.83,4.37,3.5
			c1.11,1.7,1.64,3.62,1.64,5.81c0,2.76-0.79,5.02-2.47,6.84c-1.66,1.78-4.16,2.94-7.47,3.38c1.64,0.96,3.01,1.99,4.12,3.1
			c1.04,1.12,2.47,3.12,4.28,6l4.63,7.16h-9.09l-5.53-8c-1.97-2.87-3.28-4.69-4.02-5.42c-0.69-0.72-1.5-1.25-2.27-1.52
			c-0.81-0.29-2.08-0.41-3.84-0.41h-1.55v15.35H545.05z M552.64,782.26h5.64c3.63,0,5.94-0.13,6.82-0.45
			c0.9-0.28,1.64-0.81,2.15-1.56c0.51-0.72,0.76-1.65,0.76-2.76c0-1.25-0.3-2.23-1.02-2.97c-0.65-0.77-1.62-1.27-2.87-1.46
			c-0.6-0.1-2.45-0.13-5.53-0.13h-5.97V782.26z"/>
	</g>
	<g>
		<path class="st4" d="M6.19,826.71h51.33c11.16,0,19.54,2.19,25.11,6.55c5.56,4.36,8.34,10.59,8.34,18.64
			c0,8.27-3.05,14.77-9.11,19.43c-6.06,4.67-15.31,7-27.75,7h-16.9v30.46H6.19V826.71z M37.21,861.71h7.57
			c5.95,0,10.13-0.84,12.52-2.55c2.38-1.7,3.63-3.86,3.63-6.51c0-2.57-1.06-4.78-3.15-6.57c-2.1-1.78-6.01-2.65-11.79-2.65h-8.79
			V861.71z"/>
		<path class="st4" d="M103.24,867.81c0-13.42,4.56-23.85,13.63-31.32c9.09-7.46,21.75-11.2,37.94-11.2
			c16.62,0,29.43,3.68,38.43,11.02c8.97,7.34,13.49,17.61,13.49,30.81c0,9.59-1.98,17.46-5.89,23.6
			c-3.94,6.16-9.61,10.93-17.04,14.35c-7.43,3.4-16.67,5.12-27.75,5.12c-11.28,0-20.61-1.47-27.98-4.42
			c-7.4-2.95-13.36-7.6-17.99-13.99C105.51,885.39,103.24,877.39,103.24,867.81z M134.09,867.92c0,8.27,1.88,14.24,5.62,17.84
			c3.75,3.64,8.86,5.44,15.3,5.44c6.64,0,11.77-1.77,15.39-5.3c3.68-3.55,5.49-9.92,5.49-19.1c0-7.72-1.9-13.36-5.7-16.94
			c-3.79-3.57-8.95-5.37-15.42-5.37c-6.24,0-11.24,1.83-15.03,5.44C135.98,853.55,134.09,859.56,134.09,867.92z"/>
		<path class="st4" d="M223.76,908.8v-82.08h51.47c9.5,0,16.81,0.67,21.85,2.01c5.05,1.36,9.12,3.85,12.22,7.47
			c3.07,3.65,4.64,8.07,4.64,13.32c0,4.57-1.19,8.48-3.54,11.79c-2.38,3.27-5.64,5.98-9.78,8.02c-2.62,1.31-6.23,2.4-10.81,3.25
			c3.67,1.01,6.35,2.01,8.01,3.03c1.14,0.66,2.76,2.11,4.93,4.3c2.17,2.21,3.58,3.91,4.34,5.09l14.96,23.8h-34.87l-16.5-25.09
			c-2.13-3.24-3.97-5.35-5.61-6.33c-2.23-1.27-4.75-1.9-7.58-1.9h-2.69v33.32H223.76z M254.79,859.97h12.99
			c1.42,0,4.16-0.38,8.2-1.1c2.04-0.35,3.71-1.19,4.99-2.59c1.28-1.39,1.95-2.98,1.95-4.77c0-2.64-1.02-4.68-3.05-6.1
			c-2.08-1.42-5.92-2.13-11.56-2.13h-13.53V859.97z"/>
		<path class="st4" d="M323.67,826.71h93.83v20.24h-31.48v61.84h-30.88v-61.84h-31.47V826.71z"/>
		<path class="st4" d="M422.82,867.81c0-13.42,4.53-23.85,13.62-31.32c9.1-7.46,21.76-11.2,37.94-11.2
			c16.63,0,29.43,3.68,38.43,11.02c9.02,7.34,13.51,17.61,13.51,30.81c0,9.59-1.97,17.46-5.9,23.6
			c-3.95,6.16-9.62,10.93-17.05,14.35c-7.45,3.4-16.65,5.12-27.75,5.12c-11.26,0-20.58-1.47-27.97-4.42
			c-7.39-2.95-13.36-7.6-17.97-13.99C425.1,885.39,422.82,877.39,422.82,867.81z M453.68,867.92c0,8.27,1.88,14.24,5.63,17.84
			c3.76,3.64,8.84,5.44,15.28,5.44c6.66,0,11.79-1.77,15.4-5.3c3.63-3.55,5.46-9.92,5.46-19.1c0-7.72-1.87-13.36-5.69-16.94
			c-3.78-3.57-8.95-5.37-15.43-5.37c-6.22,0-11.23,1.83-14.98,5.44C455.56,853.55,453.68,859.56,453.68,867.92z"/>
		<path class="st4" d="M527.13,826.71h32.26l22.47,59.05l22.22-59.05h31.33l-37.09,82.08h-33.43L527.13,826.71z"/>
		<path class="st4" d="M646.72,826.71h30.94v82.08h-30.94V826.71z"/>
		<path class="st4" d="M699.74,826.71h82.71v17.53h-51.77v13.04h48v16.74h-48v16.17h53.27v18.61h-84.21V826.71z"/>
		<path class="st4" d="M842.2,826.71h30.87v44.59c0,9.36-0.97,16.49-3.01,21.39c-2.04,4.87-6.11,9-12.26,12.42
			c-6.06,3.38-13.94,5.08-23.4,5.08c-10.13,0-17.92-1.12-23.47-3.35c-5.57-2.24-9.85-5.5-12.81-9.83c-3.08-4.3-4.79-9.64-5.36-15.97
			l29.5-3.32c0.05,3.63,0.42,6.33,1.16,8.06c0.72,1.77,1.94,3.18,3.68,4.25c1.16,0.72,2.82,1.09,5.04,1.09
			c3.45,0,5.97-1.08,7.61-3.19c1.6-2.09,2.45-5.64,2.45-10.63V826.71z"/>
		<path class="st4" d="M889.8,867.81c0-13.42,4.51-23.85,13.57-31.32c9.06-7.46,21.78-11.2,38.01-11.2
			c16.6,0,29.43,3.68,38.41,11.02c8.99,7.34,13.5,17.61,13.5,30.81c0,9.59-2.03,17.46-5.94,23.6c-3.89,6.16-9.6,10.93-17.02,14.35
			c-7.4,3.4-16.69,5.12-27.75,5.12c-11.28,0-20.58-1.47-27.98-4.42c-7.38-2.95-13.41-7.6-18.01-13.99
			C892.09,885.39,889.8,877.39,889.8,867.81z M920.63,867.92c0,8.27,1.92,14.24,5.66,17.84c3.72,3.64,8.81,5.44,15.28,5.44
			c6.64,0,11.77-1.77,15.4-5.3c3.63-3.55,5.43-9.92,5.43-19.1c0-7.72-1.85-13.36-5.66-16.94c-3.81-3.57-8.95-5.37-15.45-5.37
			c-6.24,0-11.24,1.83-15.01,5.44C922.55,853.55,920.63,859.56,920.63,867.92z"/>
	</g>
</g>
</svg>
